<?xml version="1.0" encoding="UTF-8" standalone="no"?>
<!-- Generator: Adobe Illustrator 17.1.0, SVG Export Plug-In . SVG Version: 6.00 Build 0)  -->

<svg
   xmlns:dc="http://purl.org/dc/elements/1.1/"
   xmlns:cc="http://creativecommons.org/ns#"
   xmlns:rdf="http://www.w3.org/1999/02/22-rdf-syntax-ns#"
   xmlns:svg="http://www.w3.org/2000/svg"
   xmlns="http://www.w3.org/2000/svg"
   xmlns:sodipodi="http://sodipodi.sourceforge.net/DTD/sodipodi-0.dtd"
   xmlns:inkscape="http://www.inkscape.org/namespaces/inkscape"
   version="1.1"
   id="Layer_1"
   x="0px"
   y="0px"
   viewBox="0 221 1496.1665 110.8"
   enable-background="new 0 221 960 118"
   xml:space="preserve"
   inkscape:version="0.91 r13725"
   sodipodi:docname="handbook_logo_horizontal.svg"
   width="1496.1665"
   height="110.8"><metadata
     id="metadata4376"><rdf:RDF><cc:Work
         rdf:about=""><dc:format>image/svg+xml</dc:format><dc:type
           rdf:resource="http://purl.org/dc/dcmitype/StillImage" /><dc:title></dc:title></cc:Work></rdf:RDF></metadata><defs
     id="defs4374" /><sodipodi:namedview
     pagecolor="#ffffff"
     bordercolor="#666666"
     borderopacity="1"
     objecttolerance="10"
     gridtolerance="10"
     guidetolerance="10"
     inkscape:pageopacity="0"
     inkscape:pageshadow="2"
     inkscape:window-width="1456"
     inkscape:window-height="432"
     id="namedview4372"
     showgrid="false"
     fit-margin-top="0"
     fit-margin-left="0"
     fit-margin-right="0"
     fit-margin-bottom="0"
     inkscape:zoom="0.32291667"
     inkscape:cx="1034.2273"
     inkscape:cy="229.85072"
     inkscape:window-x="0"
     inkscape:window-y="27"
     inkscape:window-maximized="0"
     inkscape:current-layer="Layer_1" /><g
     id="g4334"
     transform="translate(538.16653,-3.6)"><g
       id="g4336"><path
         d="m 31.6,250.8 c 15.3,0 29.5,11.6 29.5,31.8 0,20.2 -14.2,31.8 -29.5,31.8 C 16.2,314.4 2,302.7 2,282.6 2,262.5 16.2,250.8 31.6,250.8 Z m 0,49 c 7.3,0 11.1,-6.7 11.1,-17.2 0,-10.5 -3.8,-17.2 -11.1,-17.2 -7.5,0 -11.1,6.7 -11.1,17.2 0,10.5 3.6,17.2 11.1,17.2 z"
         id="path4338"
         inkscape:connector-curvature="0"
         style="fill:#009688" /><path
         d="m 91.4,317.7 0,17.7 -18,0 0,-83.1 14.7,0 1.2,6 0.5,0 c 4.8,-4.3 10.9,-7.5 17.2,-7.5 14.7,0 23.7,12.1 23.7,30.8 0,20.8 -12.5,32.8 -25.6,32.8 -5.3,0 -10.2,-2.3 -14.4,-6.4 l 0.7,9.7 z m 9.6,-18 c 6.2,0 11.3,-5.4 11.3,-17.8 0,-10.9 -3.3,-16.4 -10.5,-16.4 -3.7,0 -6.8,1.7 -10.4,5.5 l 0,24.8 c 3.1,2.9 6.6,3.9 9.6,3.9 z"
         id="path4340"
         inkscape:connector-curvature="0"
         style="fill:#009688" /><path
         d="m 168.5,250.8 c 17.2,0 25.8,12.6 25.8,29.1 0,3.2 -0.4,6.1 -0.7,7.6 l -36.3,0 c 1.6,9.2 7.7,13.2 15.8,13.2 4.5,0 8.7,-1.3 13.1,-4 l 6,10.9 c -6.2,4.3 -14.3,6.8 -21.5,6.8 -17.4,0 -30.7,-11.7 -30.7,-31.8 -0.1,-19.7 13.9,-31.8 28.5,-31.8 z m 10.5,25.5 c 0,-7 -2.9,-11.9 -10.2,-11.9 -5.6,0 -10.5,3.8 -11.7,11.9 l 21.9,0 z"
         id="path4342"
         inkscape:connector-curvature="0"
         style="fill:#009688" /><path
         d="m 206.7,252.2 14.7,0 1.2,7.7 0.5,0 c 5.1,-4.9 11.2,-9.2 19.4,-9.2 13.2,0 18.8,9.3 18.8,24.5 l 0,37.7 -18,0 0,-35.3 c 0,-8.8 -2.3,-11.5 -7.5,-11.5 -4.5,0 -7.3,2.1 -11.2,5.9 l 0,41 -18,0 0.1,-60.8 0,0 z"
         id="path4344"
         inkscape:connector-curvature="0"
         style="fill:#009688" /><path
         d="m 298.7,250.8 c 6.7,0 10.8,2.4 14.9,6.4 l -0.7,-9.3 0,-20.7 18,0 0,85.7 -14.7,0 -1.2,-6 -0.5,0 c -4.3,4.3 -10.3,7.5 -16.1,7.5 -15,0 -24.8,-12 -24.8,-31.8 -0.1,-19.8 12.2,-31.8 25.1,-31.8 z m 4.2,48.9 c 3.9,0 7,-1.5 9.9,-5.5 l 0,-24.8 c -3.2,-2.9 -6.7,-3.9 -10,-3.9 -5.7,0 -10.9,5.4 -10.9,16.9 0,11.9 4.1,17.3 11,17.3 z"
         id="path4346"
         inkscape:connector-curvature="0"
         style="fill:#009688" /><path
         d="m 378.6,273.9 c -0.4,-5.4 -3.1,-8.8 -9.5,-8.8 -5.1,0 -10.3,2.1 -16.1,5.5 l -6.4,-11.9 c 7.7,-4.6 16.4,-7.9 25.9,-7.9 15.5,0 24.1,8.8 24.1,27.4 l 0,34.7 -14.7,0 -1.3,-6.2 -0.4,0 c -5.1,4.5 -10.9,7.7 -17.7,7.7 -11,0 -18,-8.1 -18,-18.3 0,-12.8 10.1,-19.8 34.1,-22.2 z m -10,26.5 c 4.2,0 6.8,-2 10,-5.1 l 0,-10.6 c -12.8,1.7 -17,5.4 -17,10 0,3.9 2.7,5.7 7,5.7 z"
         id="path4348"
         inkscape:connector-curvature="0"
         style="fill:#009688" /><path
         d="m 414.4,266.3 -8.3,0 0,-13.3 9.3,-0.7 2.1,-16.1 14.9,0 0,16.1 14.5,0 0,14.1 -14.5,0 0,24.3 c 0,6.8 3.1,9.7 7.8,9.7 2,0 4.2,-0.6 5.7,-1.2 l 2.8,13.1 c -3.2,1 -7.6,2.2 -13.5,2.2 -15,0 -20.9,-9.4 -20.9,-23.5 l 0,-24.7 z"
         id="path4350"
         inkscape:connector-curvature="0"
         style="fill:#009688" /><path
         d="m 489.2,273.9 c -0.4,-5.4 -3.1,-8.8 -9.5,-8.8 -5.1,0 -10.3,2.1 -16.1,5.5 l -6.4,-11.9 c 7.7,-4.6 16.4,-7.9 25.9,-7.9 15.5,0 24.1,8.8 24.1,27.4 l 0,34.7 -14.7,0 -1.3,-6.2 -0.4,0 c -5.1,4.5 -10.9,7.7 -17.7,7.7 -11,0 -18,-8.1 -18,-18.3 0,-12.8 10.2,-19.8 34.1,-22.2 z m -10,26.5 c 4.2,0 6.9,-2 10,-5.1 l 0,-10.6 c -12.8,1.7 -17,5.4 -17,10 0,3.9 2.7,5.7 7,5.7 z"
         id="path4352"
         inkscape:connector-curvature="0"
         style="fill:#009688" /><path
         d="m 533,291.7 c 6.2,0 10.9,4.9 10.9,11.4 0,6.4 -4.6,11.3 -10.9,11.3 -6.2,0 -10.9,-4.9 -10.9,-11.3 0,-6.5 4.7,-11.4 10.9,-11.4 z"
         id="path4354"
         inkscape:connector-curvature="0" /><path
         d="m 562,294.7 c 5.5,4.2 10.5,6.4 15.6,6.4 5.4,0 7.7,-2 7.7,-5.1 0,-4 -6.1,-5.9 -12.3,-8.3 -7.3,-2.8 -16,-7.8 -16,-17.8 0,-11.2 9.2,-19 23.2,-19 9.3,0 16.1,3.8 21.4,7.7 l -8.1,10.8 c -4.4,-3.2 -8.6,-5.1 -12.8,-5.1 -4.6,0 -6.8,1.7 -6.8,4.8 0,3.9 5.6,5.4 11.9,7.7 7.7,2.8 16.4,7.1 16.4,18.2 0,11 -8.7,19.6 -24.9,19.6 -7.9,0 -17.1,-3.4 -23.2,-8.4 l 7.9,-11.5 z"
         id="path4356"
         inkscape:connector-curvature="0" /><path
         d="m 608.4,252.2 17.9,0 5.9,28.1 c 1,6 1.7,11.9 2.7,18 l 0.5,0 c 1.1,-6.1 2.1,-12.2 3.5,-18 l 6.7,-28.1 15.5,0 6.8,28.1 c 1.5,6 2.6,11.9 3.8,18 l 0.5,0 c 1.1,-6.1 1.7,-12 2.8,-18 l 5.7,-28.1 16.6,0 -14.6,60.6 -21,0 -5.5,-24.2 C 655,283 654,277.4 652.9,270.9 l -0.5,0 c -1.1,6.5 -2,12.1 -3.1,17.7 l -5.4,24.2 -20.5,0 -15,-60.6 z"
         id="path4358"
         inkscape:connector-curvature="0" /><path
         d="m 706.8,233.9 c 0,-5.5 4.4,-9.3 10.4,-9.3 6.1,0 10.4,3.8 10.4,9.3 0,5.5 -4.3,9.4 -10.4,9.4 -6,0 -10.4,-3.9 -10.4,-9.4 z m 1.5,18.3 18,0 0,60.6 -18,0 0,-60.6 z"
         id="path4360"
         inkscape:connector-curvature="0" /><path
         d="m 744.7,294.7 c 5.5,4.2 10.5,6.4 15.6,6.4 5.4,0 7.7,-2 7.7,-5.1 0,-4 -6.1,-5.9 -12.3,-8.3 -7.3,-2.8 -16,-7.8 -16,-17.8 0,-11.2 9.2,-19 23.2,-19 9.3,0 16.1,3.8 21.4,7.7 l -8.1,10.8 c -4.4,-3.2 -8.6,-5.1 -12.8,-5.1 -4.6,0 -6.8,1.7 -6.8,4.8 0,3.9 5.6,5.4 11.9,7.7 7.7,2.8 16.4,7.1 16.4,18.2 0,11 -8.7,19.6 -24.9,19.6 -7.9,0 -17.1,-3.4 -23.2,-8.4 l 7.9,-11.5 z"
         id="path4362"
         inkscape:connector-curvature="0" /><path
         d="m 798.9,294.7 c 5.5,4.2 10.5,6.4 15.6,6.4 5.4,0 7.7,-2 7.7,-5.1 0,-4 -6.1,-5.9 -12.3,-8.3 -7.3,-2.8 -16,-7.8 -16,-17.8 0,-11.2 9.2,-19 23.2,-19 9.3,0 16.1,3.8 21.4,7.7 l -8.1,10.8 c -4.4,-3.2 -8.6,-5.1 -12.8,-5.1 -4.6,0 -6.8,1.7 -6.8,4.8 0,3.9 5.6,5.4 11.9,7.7 7.7,2.8 16.4,7.1 16.4,18.2 0,11 -8.7,19.6 -24.9,19.6 -8,0 -17.1,-3.4 -23.2,-8.4 l 7.9,-11.5 z"
         id="path4364"
         inkscape:connector-curvature="0" /></g><g
       id="g4366"><path
         d="m 890.4,250.1 c 12.5,-9 30.1,-7.8 41.4,3.4 11.3,11.3 12.4,28.8 3.4,41.4 l 12,12 c 7,-8.7 10.8,-19.3 10.8,-30.6 0,-13.1 -5.1,-25.4 -14.3,-34.6 -9.2,-9.2 -21.5,-14.3 -34.6,-14.3 -11.3,0 -22,3.8 -30.6,10.8 l 11.9,11.9 z"
         id="path4368"
         inkscape:connector-curvature="0"
         style="fill:#009688" /><path
         d="m 927.3,302.7 c -12.5,8.5 -29.8,7.3 -40.8,-3.8 -11.1,-11.1 -12.3,-28.3 -3.8,-40.8 l -12,-12 c -6.7,8.6 -10.4,19 -10.4,30.1 0,13.1 5.1,25.4 14.3,34.6 9.2,9.2 21.5,14.3 34.6,14.3 11.1,0 21.5,-3.7 30.1,-10.4 l -12,-12 z"
         id="path4370"
         inkscape:connector-curvature="0" /></g></g><text
     xml:space="preserve"
     style="font-style:normal;font-weight:normal;font-size:97.18280792px;line-height:989.00003433%;font-family:sans-serif;text-align:start;letter-spacing:0px;word-spacing:0px;text-anchor:start;fill:#000100;fill-opacity:1;stroke:none;stroke-width:1px;stroke-linecap:butt;stroke-linejoin:miter;stroke-opacity:1"
     x="-8.8679314"
     y="308.77045"
     id="text4156"
     sodipodi:linespacing="989.00003%"
     transform="scale(1.0004526,0.99954761)"><tspan
       sodipodi:role="line"
       id="tspan4158"
       x="-8.8679314"
       y="308.77045"
       style="font-style:normal;font-variant:normal;font-weight:600;font-stretch:normal;font-size:121.478508px;font-family:'Source Sans Pro';-inkscape-font-specification:'Source Sans Pro Semi-Bold';letter-spacing:-2.84999919px;fill:#000100;fill-opacity:1">handbook<tspan
   style="font-style:normal;font-variant:normal;font-weight:bold;font-stretch:normal;font-family:'Source Sans Pro';-inkscape-font-specification:'Source Sans Pro Bold'"
   id="tspan4936">.</tspan></tspan></text>
</svg>